# xmcd
#
# Track frame offsets: 
#        150
#        14963
#        29963
#        44288
#        57488
#        71588
#        88125
#        105112
#        121274
#
# Disc length: 1853 seconds
#
# Revision: 0
# Processed by: cddbd v1.5PL3 Copyright (c) Steve Scherf et al.
# Submitted via: ExactAudioCopy v0.95a4
#
DISCID=7f073b09
DTITLE=Asleep At The Wheel - Best Of Asleep At The Wheel
DYEAR=1900
DGENRE=
TTITLE0=The Letter That Johnny Walker Read
TTITLE1=Bump Bounce Boogie
TTITLE2=Miles and Miles Of Texas
TTITLE3=Route 66
TTITLE4=Nothin' Takes The Place Of You
TTITLE5=The Trouble With Lovin' Today
TTITLE6=Choo Choo Ch'Boogie
TTITLE7=Texas, Me and You
TTITLE8=Jumpin' At The Woodside
EXTD=
EXTT0=
EXTT1=
EXTT2=
EXTT3=
EXTT4=
EXTT5=
EXTT6=
EXTT7=
EXTT8=
PLAYORDER=
